<svg width="32" height="32" viewBox="0 0 32 32" fill="none" xmlns="http://www.w3.org/2000/svg">
<path fill-rule="evenodd" clip-rule="evenodd" d="M13.694 4.84596C12.6826 4.27049 11.5363 3.97855 10.3743 4.00123C9.21225 4.0239 8.07809 4.36032 7.08958 4.97472C6.10115 5.58907 5.2948 6.45863 4.75317 7.49218C4.21158 8.52566 3.95407 9.68601 4.00672 10.8529C4.05937 12.0199 4.42032 13.152 5.05297 14.1318C5.57043 14.9332 6.25444 15.6091 7.05543 16.1139V17.3828C7.05543 17.8085 7.22278 18.2188 7.5238 18.5228C7.82516 18.8272 8.23601 19 8.66654 19H12.3332C12.7637 19 13.1746 18.8272 13.4759 18.5228C13.777 18.2188 13.9443 17.8085 13.9443 17.3828V16.1155C14.7829 15.5896 15.4929 14.8759 16.018 14.0275C16.6549 12.9983 16.9946 11.8109 16.9999 10.5988C17.0076 9.4312 16.7059 8.28216 16.1253 7.27081C15.5445 6.25901 14.7054 5.42139 13.694 4.84596ZM10.4133 6.00085C11.2144 5.98521 12.0056 6.1864 12.705 6.58429C13.4043 6.98221 13.9868 7.56271 14.3908 8.26653C14.7949 8.97043 15.0055 9.77151 14.9999 10.5865L14.9999 10.5892C14.9964 11.4339 14.7597 12.2601 14.3173 12.9751C13.8749 13.6899 13.2448 14.2646 12.4988 14.6358C12.1591 14.8049 11.9443 15.1517 11.9443 15.5311V17H9.05543V15.5311C9.05543 15.1527 8.84179 14.8066 8.50345 14.6371C7.7846 14.2769 7.17303 13.7282 6.73316 13.0469C6.29325 12.3656 6.04142 11.5769 6.00469 10.7628C5.96795 9.94862 6.14772 9.13982 6.52466 8.42053C6.90157 7.7013 7.46153 7.09837 8.14535 6.67335C8.82908 6.24839 9.61214 6.01648 10.4133 6.00085Z" fill="#222425"/>
<path d="M9 21C8.44772 21 8 21.4477 8 22C8 22.5523 8.44772 23 9 23H12C12.5523 23 13 22.5523 13 22C13 21.4477 12.5523 21 12 21H9Z" fill="#222425"/>
<path fill-rule="evenodd" clip-rule="evenodd" d="M21.8293 24H27C27.5523 24 28 24.4477 28 25C28 25.5523 27.5523 26 27 26H21.8293C21.4175 27.1652 20.3062 28 19 28C17.3431 28 16 26.6569 16 25C16 23.3431 17.3431 22 19 22C20.3062 22 21.4175 22.8348 21.8293 24ZM19 24C19.5523 24 20 24.4477 20 25C20 25.5523 19.5523 26 19 26C18.4477 26 18 25.5523 18 25C18 24.4477 18.4477 24 19 24Z" fill="#222425"/>
<path fill-rule="evenodd" clip-rule="evenodd" d="M17 18C16.4477 18 16 18.4477 16 19C16 19.5523 16.4477 20 17 20H22.1707C22.5825 21.1652 23.6938 22 25 22C26.6569 22 28 20.6569 28 19C28 17.3431 26.6569 16 25 16C23.6938 16 22.5825 16.8348 22.1707 18H17ZM24 19C24 19.5523 24.4477 20 25 20C25.5523 20 26 19.5523 26 19C26 18.4477 25.5523 18 25 18C24.4477 18 24 18.4477 24 19Z" fill="#222425"/>
</svg>
