<svg width="32" height="32" viewBox="0 0 32 32" fill="none" xmlns="http://www.w3.org/2000/svg">
<path fill-rule="evenodd" clip-rule="evenodd" d="M11.8093 7.24944C10.4769 6.49728 9 7.49882 9 8.75782V19.2423C9 20.5013 10.4769 21.5028 11.8093 20.7506L21.095 15.5084C22.3017 14.8272 22.3017 13.1729 21.095 12.4917L11.8093 7.24944ZM11.1667 18.769V9.23106L19.6141 14L11.1667 18.769Z" fill="#222425"/>
<path d="M10 23C9.44772 23 9 23.4477 9 24C9 24.5523 9.44772 25 10 25H21C21.5523 25 22 24.5523 22 24C22 23.4477 21.5523 23 21 23H10Z" fill="#222425"/>
</svg>
