<svg width="32" height="32" viewBox="0 0 32 32" fill="none" xmlns="http://www.w3.org/2000/svg">
<path fill-rule="evenodd" clip-rule="evenodd" d="M15.4474 5.99989L15.4504 5.99988L16.5526 5.99988C17.024 6.00128 17.4841 6.14503 17.8725 6.41231C18.2608 6.67954 18.5594 7.05779 18.7291 7.49754L19.1776 8.65513L20.5251 9.43041L21.7608 9.24191L21.7771 9.23957C22.237 9.17715 22.705 9.25285 23.1217 9.45705C23.5385 9.66126 23.8851 9.98475 24.1176 10.3864L24.1203 10.3912L24.6539 11.3249C24.8913 11.7316 25.0006 12.2005 24.9673 12.6703C24.934 13.1411 24.7591 13.5908 24.4657 13.9603L24.4631 13.9636L23.7025 14.9327V16.4861L24.4899 17.4626C24.7849 17.8328 24.9607 18.2837 24.9942 18.7559C25.0274 19.2257 24.9182 19.6945 24.6808 20.1012L24.1471 21.035L24.1444 21.0398C23.9119 21.4415 23.5653 21.765 23.1486 21.9692C22.7318 22.1734 22.2638 22.2491 21.8039 22.1867L21.7876 22.1843L20.5519 21.9958L19.2044 22.7711L18.756 23.9284L18.7557 23.9294C18.5858 24.3687 18.2873 24.7469 17.8993 25.0139C17.5109 25.2812 17.0508 25.4249 16.5794 25.4263L16.5764 25.4263H15.4504L15.4474 25.4263C14.976 25.4249 14.5159 25.2812 14.1275 25.0139C13.7393 24.7467 13.4408 24.3686 13.271 23.929L12.8224 22.7711L11.4749 21.9958L10.2392 22.1843L10.2229 22.1867C9.76304 22.2491 9.295 22.1734 8.87826 21.9692C8.46151 21.765 8.11488 21.4415 7.88242 21.0398L7.87966 21.035L7.3461 20.1013C7.10866 19.6946 6.99939 19.2257 7.03265 18.7559C7.06599 18.2851 7.24087 17.8354 7.53431 17.4658L8.29752 16.4935V14.9401L7.51007 13.9636C7.21507 13.5934 7.03927 13.1425 7.00584 12.6703C6.97258 12.2005 7.08186 11.7316 7.31929 11.3249L7.85559 10.3864C8.08806 9.98474 8.4347 9.66126 8.85145 9.45705C9.26819 9.25285 9.73623 9.17715 10.1961 9.23957L10.2124 9.24191L11.4514 9.43091L12.8236 8.65206L13.2708 7.4978L13.2711 7.49686C13.4409 7.0574 13.7394 6.6794 14.1275 6.41231C14.5159 6.14503 14.976 6.00128 15.4474 5.99989ZM15.4524 7.99988C15.3841 8.00028 15.3176 8.02118 15.2613 8.05988C15.2048 8.09876 15.1614 8.1538 15.1367 8.2178L14.5598 9.70698C14.4765 9.922 14.3215 10.1016 14.1209 10.2154L12.137 11.3415C11.9416 11.4523 11.7146 11.4942 11.4926 11.4603L9.92163 11.2207C9.85649 11.2129 9.79045 11.2241 9.73148 11.253C9.6714 11.2825 9.62134 11.3289 9.58753 11.3866L9.04703 12.3325C9.01213 12.3919 8.99599 12.4604 9.00085 12.5291C9.00567 12.5971 9.03081 12.6621 9.07299 12.7157L10.0759 13.9593C10.2193 14.1371 10.2975 14.3587 10.2975 14.5871V16.8391C10.2975 17.063 10.2224 17.2805 10.0841 17.4566L9.10104 18.709C9.05812 18.7629 9.03252 18.8284 9.02766 18.8971C9.0228 18.9658 9.03888 19.0344 9.07378 19.0938L9.08002 19.1044L9.61433 20.0396C9.64814 20.0973 9.69821 20.1438 9.75829 20.1732C9.81726 20.2021 9.8833 20.2133 9.94844 20.2055L11.5194 19.9659C11.7434 19.9317 11.9724 19.9747 12.1689 20.0877L14.126 21.2137C14.3241 21.3277 14.4772 21.5061 14.5598 21.7192L15.1367 23.2084C15.1614 23.2724 15.2048 23.3275 15.2613 23.3663C15.3176 23.4051 15.3842 23.426 15.4525 23.4263H16.5744C16.6426 23.426 16.7092 23.4051 16.7655 23.3663C16.822 23.3275 16.8654 23.2724 16.8901 23.2084L17.467 21.7192C17.5496 21.5061 17.7027 21.3277 17.9008 21.2137L19.8579 20.0877C20.0544 19.9747 20.2834 19.9317 20.5074 19.9659L22.0784 20.2055C22.1435 20.2133 22.2095 20.2021 22.2685 20.1732C22.3286 20.1437 22.3787 20.0973 22.4125 20.0396L22.953 19.0937C22.9879 19.0343 23.004 18.9658 22.9992 18.8971C22.9943 18.8291 22.9692 18.7641 22.927 18.7105L21.9241 17.4669C21.7807 17.2891 21.7025 17.0675 21.7025 16.8391V14.5871C21.7025 14.3632 21.7776 14.1458 21.9159 13.9696L22.899 12.7172C22.9419 12.6634 22.9675 12.5978 22.9723 12.5291C22.9772 12.4604 22.9611 12.3918 22.9262 12.3325L22.92 12.3218L22.3866 11.3882L22.3857 11.3867C22.3519 11.329 22.3018 11.2825 22.2417 11.253C22.1827 11.2241 22.1167 11.2129 22.0516 11.2207L20.4806 11.4603C20.2566 11.4945 20.0276 11.4516 19.8311 11.3385L17.874 10.2125C17.6759 10.0985 17.5228 9.92012 17.4402 9.70698L16.8633 8.2178C16.8386 8.1538 16.7952 8.09876 16.7387 8.05988C16.6824 8.02118 16.6159 8.00028 16.5476 7.99988H15.4524ZM13.3971 13.1103C14.0875 12.4199 15.0237 12.0321 16 12.0321C16.9763 12.0321 17.9125 12.4199 18.6029 13.1103C19.2932 13.8006 19.681 14.7369 19.681 15.7131C19.681 16.6894 19.2932 17.6256 18.6029 18.316C17.9125 19.0063 16.9763 19.3941 16 19.3941C15.0237 19.3941 14.0875 19.0063 13.3971 18.316C12.7068 17.6256 12.319 16.6894 12.319 15.7131C12.319 14.7369 12.7068 13.8006 13.3971 13.1103ZM16 14.0321C15.5542 14.0321 15.1266 14.2092 14.8114 14.5245C14.4961 14.8397 14.319 15.2673 14.319 15.7131C14.319 16.1589 14.4961 16.5865 14.8114 16.9018C15.1266 17.217 15.5542 17.3941 16 17.3941C16.4458 17.3941 16.8734 17.217 17.1886 16.9018C17.5039 16.5865 17.681 16.1589 17.681 15.7131C17.681 15.2673 17.5039 14.8397 17.1886 14.5245C16.8734 14.2092 16.4458 14.0321 16 14.0321Z" fill="#222425"/>
</svg>
