<svg xmlns="http://www.w3.org/2000/svg" width="32" height="32" viewBox="0 0 32 32" fill="none">
  <g transform="translate(-5.4400,-5.4400) scale(1.3400)">
    <path fill-rule="evenodd" clip-rule="evenodd" d="M14.8004 10.4006C15.1315 10.8426 15.0415 11.4694 14.5994 11.8004L13.0036 12.9955H16C19.866 12.9955 23 16.1295 23 19.9955V22C23 22.5523 22.5523 23 22 23C21.4477 23 21 22.5523 21 22V19.9955C21 17.2341 18.7614 14.9955 16 14.9955H12.9964L14.6006 16.2004C15.0422 16.5321 15.1313 17.159 14.7996 17.6006C14.4679 18.0422 13.841 18.1313 13.3994 17.7996L9.39943 14.7951C9.14776 14.6061 8.99978 14.3096 9 13.9948C9.00023 13.6801 9.14863 13.3838 9.40057 13.1951L13.4006 10.1996C13.8426 9.86851 14.4694 9.95851 14.8004 10.4006Z" fill="#222425" />
  </g>
</svg>