<?xml version='1.0' encoding='utf-8'?>
<svg xmlns="http://www.w3.org/2000/svg" width="32" height="32" viewBox="0 0 32 32" fill="none" transform="matrix(1, 0, 0, 1, 0, 0)">
<defs><linearGradient id="g_antimonochrome" x1="0" x2="0" y1="0" y2="1"><stop offset="0%" stop-color="#ffff27" /><stop offset="100%" stop-color="#ffff28" /></linearGradient></defs><path d="M15 5C15 4.44772 15.4477 4 16 4C16.5523 4 17 4.44772 17 5V7C17 7.55228 16.5523 8 16 8C15.4477 8 15 7.55228 15 7V5Z" fill="url(#g_antimonochrome)" />
<path fill-rule="evenodd" clip-rule="evenodd" d="M11.7574 11.7574C12.8826 10.6321 14.4087 10 16 10C17.5913 10 19.1174 10.6321 20.2426 11.7574C21.3679 12.8826 22 14.4087 22 16C22 17.5913 21.3679 19.1174 20.2426 20.2426C19.1174 21.3679 17.5913 22 16 22C14.4087 22 12.8826 21.3679 11.7574 20.2426C10.6321 19.1174 10 17.5913 10 16C10 14.4087 10.6321 12.8826 11.7574 11.7574ZM16 12C14.9391 12 13.9217 12.4214 13.1716 13.1716C12.4214 13.9217 12 14.9391 12 16C12 17.0609 12.4214 18.0783 13.1716 18.8284C13.9217 19.5786 14.9391 20 16 20C17.0609 20 18.0783 19.5786 18.8284 18.8284C19.5786 18.0783 20 17.0609 20 16C20 14.9391 19.5786 13.9217 18.8284 13.1716C18.0783 12.4214 17.0609 12 16 12Z" fill="url(#g_antimonochrome)" />
<path d="M24.4845 7.51472C24.0939 7.1242 23.4608 7.1242 23.0702 7.51472L21.656 8.92894C21.2655 9.31946 21.2655 9.95263 21.656 10.3432C22.0465 10.7337 22.6797 10.7337 23.0702 10.3432L24.4845 8.92894C24.875 8.53841 24.875 7.90525 24.4845 7.51472Z" fill="url(#g_antimonochrome)" />
<path d="M15 25C15 24.4477 15.4477 24 16 24C16.5523 24 17 24.4477 17 25V27C17 27.5523 16.5523 28 16 28C15.4477 28 15 27.5523 15 27V25Z" fill="url(#g_antimonochrome)" />
<path d="M10.3438 21.6568C9.9533 21.2663 9.32014 21.2663 8.92961 21.6568L7.5154 23.071C7.12487 23.4616 7.12487 24.0947 7.5154 24.4852C7.90592 24.8758 8.53909 24.8758 8.92961 24.4852L10.3438 23.071C10.7343 22.6805 10.7343 22.0473 10.3438 21.6568Z" fill="url(#g_antimonochrome)" />
<path d="M27 15C27.5523 15 28 15.4477 28 16C28 16.5523 27.5523 17 27 17H25C24.4477 17 24 16.5523 24 16C24 15.4477 24.4477 15 25 15H27Z" fill="url(#g_antimonochrome)" />
<path d="M24.4863 24.4853C24.8768 24.0948 24.8768 23.4616 24.4863 23.0711L23.072 21.6569C22.6815 21.2664 22.0483 21.2664 21.6578 21.6569C21.2673 22.0474 21.2673 22.6806 21.6578 23.0711L23.072 24.4853C23.4626 24.8758 24.0957 24.8758 24.4863 24.4853Z" fill="url(#g_antimonochrome)" />
<path d="M7 15C7.55228 15 8 15.4477 8 16C8 16.5523 7.55228 17 7 17H5C4.44772 17 4 16.5523 4 16C4 15.4477 4.44772 15 5 15H7Z" fill="url(#g_antimonochrome)" />
<path d="M10.3437 10.3431C10.7342 9.95257 10.7342 9.3194 10.3437 8.92888L8.92946 7.51467C8.53894 7.12414 7.90577 7.12414 7.51525 7.51467C7.12472 7.90519 7.12472 8.53835 7.51525 8.92888L8.92946 10.3431C9.31998 10.7336 9.95315 10.7336 10.3437 10.3431Z" fill="url(#g_antimonochrome)" />
</svg>