<svg width="32" height="32" viewBox="0 0 32 32" fill="none" xmlns="http://www.w3.org/2000/svg">
<path fill-rule="evenodd" clip-rule="evenodd" d="M5 16C5 9.92487 9.92487 5 16 5C22.0751 5 27 9.92487 27 16C27 22.0751 22.0751 27 16 27C9.92487 27 5 22.0751 5 16ZM10.3823 8.9681C11.6771 7.93238 13.2641 7.24682 15 7.05493V13.1707C14.8996 13.2062 14.8017 13.2468 14.7066 13.2924L10.3823 8.9681ZM13.2924 14.7066L8.9681 10.3823C7.93238 11.6771 7.24682 13.2641 7.05493 15H13.1707C13.2062 14.8996 13.2468 14.8017 13.2924 14.7066ZM13.1707 17H7.05493C7.24682 18.7359 7.93238 20.3229 8.9681 21.6177L13.2924 17.2934C13.2468 17.1983 13.2062 17.1004 13.1707 17ZM14.7066 18.7076L10.3823 23.0319C11.6771 24.0676 13.2641 24.7532 15 24.9451V18.8293C14.8996 18.7938 14.8017 18.7532 14.7066 18.7076ZM17 18.8293V24.9451C18.7359 24.7532 20.3229 24.0676 21.6177 23.0319L17.2934 18.7076C17.1983 18.7532 17.1004 18.7938 17 18.8293ZM18.7076 17.2934L23.0319 21.6177C24.0676 20.3229 24.7532 18.7359 24.9451 17H18.8293C18.7938 17.1004 18.7532 17.1983 18.7076 17.2934ZM18.8293 15H24.9451C24.7532 13.2641 24.0676 11.6771 23.0319 10.3823L18.7076 14.7066C18.7532 14.8017 18.7938 14.8996 18.8293 15ZM17.2934 13.2924L21.6177 8.9681C20.3229 7.93238 18.7359 7.24682 17 7.05493V13.1707C17.1004 13.2062 17.1983 13.2468 17.2934 13.2924ZM17 16C17 16.5523 16.5523 17 16 17C15.4477 17 15 16.5523 15 16C15 15.4477 15.4477 15 16 15C16.5523 15 17 15.4477 17 16Z" fill="#222425"/>
</svg>
