<svg width="32" height="32" viewBox="0 0 32 32" fill="none" xmlns="http://www.w3.org/2000/svg">
<path fill-rule="evenodd" clip-rule="evenodd" d="M15.844 5.00145C17.2672 4.9746 18.673 5.3202 19.9158 6.00401C21.1588 6.68792 22.1947 7.68602 22.9137 8.89713C23.6325 10.1081 24.0075 11.4867 23.9979 12.8898C23.9914 14.3462 23.5692 15.7704 22.781 17.0021C22.1074 18.0547 21.19 18.9303 20.109 19.5615V21.2403C20.109 21.7147 19.9158 22.1648 19.5799 22.4929C19.2448 22.8202 18.7952 23 18.3312 23H13.6645C13.2006 23 12.751 22.8202 12.4159 22.4929C12.0799 22.1648 11.8868 21.7147 11.8868 21.2403V19.5598C10.8525 18.9529 9.96776 18.1224 9.30302 17.1268C8.52028 15.9545 8.07181 14.5968 8.00639 13.1947C7.94097 11.7926 8.26116 10.4001 8.93201 9.16214C9.60276 7.9244 10.5988 6.88761 11.8142 6.1571C13.0295 5.42669 14.4208 5.02831 15.844 5.00145ZM18.9517 7.75629C18.0172 7.24213 16.9571 6.98081 15.8817 7.0011C14.8063 7.02139 13.7576 7.3225 12.8445 7.8713C11.9316 8.42 11.1887 9.19552 10.6904 10.115C10.1922 11.0344 9.95588 12.0654 10.0042 13.1015C10.0526 14.1377 10.384 15.1441 10.9663 16.0163C11.5488 16.8886 12.3617 17.5957 13.3229 18.0615C13.6677 18.2286 13.8868 18.5781 13.8868 18.9614V21H18.109V18.9614C18.109 18.5771 18.3291 18.2269 18.6754 18.0603C19.6731 17.5802 20.5107 16.8394 21.0964 15.9241C21.6819 15.0091 21.9933 13.9549 21.9979 12.8798L21.9979 12.8771C22.0052 11.8399 21.7283 10.8183 21.1939 9.91806C20.6594 9.01763 19.886 8.27036 18.9517 7.75629Z" fill="#222425"/>
<path fill-rule="evenodd" clip-rule="evenodd" d="M11.998 26C11.998 25.4477 12.4458 25 12.998 25H18.998C19.5503 25 19.998 25.4477 19.998 26C19.998 26.5523 19.5503 27 18.998 27H12.998C12.4458 27 11.998 26.5523 11.998 26Z" fill="#222425"/>
</svg>
