<?xml version='1.0' encoding='utf-8'?>
<svg xmlns="http://www.w3.org/2000/svg" width="32" height="32" viewBox="0 0 32 32" fill="none">
<defs><linearGradient id="g_antimonochrome" x1="0" x2="0" y1="0" y2="1"><stop offset="0%" stop-color="#32f532" /><stop offset="100%" stop-color="#32f533" /></linearGradient></defs><path d="M17.856 23.7C17.7262 23.7 17.5908 23.7 17.4609 23.7C17.3311 23.7 17.2013 23.7 17.0658 23.7H14.8702C14.5767 23.7 14.2832 23.7 13.9897 23.7C13.2616 23.7 12.906 23.3865 12.8439 22.688C12.8213 22.4405 12.8044 22.193 12.7931 21.951C12.7705 21.5825 12.7536 21.236 12.7028 20.8895C12.4883 19.4265 11.9069 18.068 10.97 16.8525L10.9361 16.8085C10.3999 16.1155 9.85242 15.4005 9.49683 14.548C8.44699 12.029 9.10737 8.9545 11.0998 7.0625C12.5391 5.693 14.2098 5 16.0668 5C16.2192 5 16.3772 5 16.5353 5.0165C19.2276 5.1815 21.2878 6.474 22.49 8.751C23.8164 11.259 23.6019 13.822 21.8691 16.165C21.2201 17.045 20.5484 17.991 20.1307 19.0525C19.6792 20.191 19.4703 21.28 19.4929 22.3855C19.4929 22.5175 19.4929 22.6495 19.4703 22.776C19.3857 23.381 19.0357 23.678 18.4035 23.6945C18.2229 23.6945 18.0423 23.6945 17.856 23.6945V23.7Z" fill="url(#g_antimonochrome)" />
<path d="M18.7307 24.9815H13.6113V25.9935C13.6113 26.5765 14.0741 26.989 14.7402 26.9945C14.9264 26.9945 15.1127 26.9945 15.299 26.9945C15.4457 26.9945 16.0214 26.9945 16.1682 26.9945C16.298 26.9945 16.4335 26.9945 16.5633 26.9945C16.6988 26.9945 16.8342 26.9945 16.9697 26.9945C17.2067 26.9945 17.4043 26.989 17.5849 26.978C17.8728 26.956 18.1776 26.846 18.3977 26.6755C18.6178 26.505 18.7307 26.2575 18.7194 25.9825V24.9705L18.7307 24.9815Z" fill="url(#g_antimonochrome)" />
</svg>