<?xml version='1.0' encoding='utf-8'?>
<svg xmlns="http://www.w3.org/2000/svg" width="32" height="32" viewBox="0 0 32 32" fill="none">
<defs><linearGradient id="g_antimonochrome" x1="0" x2="0" y1="0" y2="1"><stop offset="0%" stop-color="#ff2b2b" /><stop offset="100%" stop-color="#ff2b2c" /></linearGradient></defs><path d="M9.57245 14.5425C9.8257 15.175 10.176 15.7305 10.5477 16.253L11.8841 14.889C11.4746 14.2675 11.2159 13.657 11.0812 13.0135C10.6771 11.0555 11.5284 8.916 13.1557 7.8105C14.0071 7.233 14.977 6.925 15.9631 6.925C17.0138 6.925 17.9891 7.255 18.792 7.838L20.1553 6.4465C19.1099 5.5995 17.8059 5.1155 16.2972 5.0165C16.1463 5 15.9954 5 15.8499 5C14.0772 5 12.4822 5.693 11.1028 7.0625C9.20604 8.9545 8.57559 12.029 9.57245 14.5425Z" fill="url(#g_antimonochrome)" />
<path d="M25.6032 5.30818C25.2045 4.90118 24.5579 4.90118 24.1592 5.30818L6.30199 23.5352C5.90324 23.9422 5.90324 24.6022 6.30199 25.0092C6.70073 25.4162 7.34734 25.4162 7.74608 25.0092L13.932 18.6952L12.5039 20.158C12.5578 20.4 12.6009 20.642 12.6386 20.8895C12.6816 21.1968 12.6992 21.504 12.7177 21.8266L12.7248 21.951C12.7356 22.193 12.7518 22.4405 12.7733 22.688C12.838 23.3865 13.1721 23.6945 13.8672 23.7H18.0809C18.6844 23.689 19.0185 23.3865 19.0993 22.7815C19.1155 22.655 19.1263 22.523 19.1209 22.391C19.0993 21.28 19.2987 20.191 19.7298 19.058C20.1285 18.002 20.7697 17.0505 21.3894 16.1705C22.7742 14.207 23.146 12.0895 22.4832 9.97754L20.8883 11.6055C20.996 12.799 20.6889 13.91 19.9668 14.911C19.2825 15.8625 18.5766 16.8965 18.0917 18.079C17.6067 19.267 17.3211 20.5045 17.2511 21.7585H14.6215C14.5623 20.7905 14.4114 19.8995 14.1474 19.0415C14.1043 18.8986 14.0558 18.7557 14.0073 18.6182L25.6032 6.78218C26.002 6.37518 26.002 5.71518 25.6032 5.30818Z" fill="url(#g_antimonochrome)" />
<path d="M14.5892 26.9888C13.9534 26.9833 13.5115 26.5708 13.5115 25.9878L13.5007 25.9768V24.9648H18.388V25.9768C18.3988 26.2518 18.291 26.4993 18.0809 26.6698C17.8707 26.8403 17.5798 26.9503 17.3049 26.9723C17.1325 26.9833 16.9439 26.9888 16.7176 26.9888H14.5892Z" fill="url(#g_antimonochrome)" />
</svg>