<svg width="32" height="32" viewBox="0 0 32 32" fill="none" xmlns="http://www.w3.org/2000/svg">
<path fill-rule="evenodd" clip-rule="evenodd" d="M10.546 7.61807C12.2038 6.53942 14.1443 5.97659 16.1219 6.00075C18.0996 6.0249 20.0257 6.63496 21.6566 7.75378C23.2876 8.8726 24.5501 10.4499 25.2846 12.2863C25.4897 12.7991 25.2403 13.381 24.7275 13.5861C24.2147 13.7913 23.6328 13.5418 23.4277 13.029C22.8401 11.5599 21.83 10.2981 20.5253 9.40302C19.2205 8.50797 17.6796 8.01992 16.0975 8.0006C14.5154 7.98127 12.963 8.43154 11.6368 9.29445C10.5769 9.9841 9.6994 10.9126 9.07157 12H10.9998C11.5521 12 11.9998 12.4477 11.9998 13C11.9998 13.5523 11.5521 14 10.9998 14H6.99978C6.44749 14 5.99978 13.5523 5.99978 13V9C5.99978 8.44772 6.44749 8 6.99978 8C7.55206 8 7.99978 8.44772 7.99978 9V10C8.69886 9.0679 9.55918 8.26017 10.546 7.61807ZM19.3549 19C19.3549 18.4477 19.8026 18 20.3549 18L24.3549 18C24.9072 18 25.3549 18.4477 25.3549 19V23C25.3549 23.5523 24.9072 24 24.3549 24C23.8026 24 23.3549 23.5523 23.3549 23V22.0016C22.6561 22.933 21.7962 23.7402 20.8099 24.3819C19.1521 25.4606 17.2117 26.0234 15.234 25.9993C13.2563 25.9751 11.3302 25.365 9.69929 24.2462C8.06835 23.1274 6.80579 21.5501 6.07129 19.7137C5.86619 19.2009 6.11562 18.619 6.62841 18.4138C7.1412 18.2087 7.72316 18.4582 7.92826 18.971C8.51586 20.4401 9.52591 21.7019 10.8307 22.597C12.1354 23.492 13.6763 23.9801 15.2584 23.9994C16.8406 24.0187 18.3929 23.5685 19.7191 22.7055C20.7791 22.0159 21.6565 21.0874 22.2843 20H20.3549C19.8026 20 19.3549 19.5523 19.3549 19Z" fill="#222425"/>
</svg>
