<svg width="32" height="32" viewBox="0 0 32 32" fill="none" xmlns="http://www.w3.org/2000/svg">
<path d="M16 8C16.5523 8 17 8.44772 17 9V18.1707C18.1652 18.5825 19 19.6938 19 21C19 22.6569 17.6569 24 16 24C14.3431 24 13 22.6569 13 21C13 19.6938 13.8348 18.5825 15 18.1707V9C15 8.44772 15.4477 8 16 8Z" fill="#222425"/>
<path fill-rule="evenodd" clip-rule="evenodd" d="M16 4C13.2386 4 11 6.23858 11 9V16.5128C10.3702 17.0412 9.88398 17.6374 9.5491 18.3478C9.14843 19.1976 9 20.1357 9 21.1799C9 24.975 12.1629 28 16 28C19.8371 28 23 24.975 23 21.1799C23 20.1357 22.8516 19.1976 22.4509 18.3478C22.116 17.6374 21.6298 17.0412 21 16.5128V9C21 6.23858 18.7614 4 16 4ZM13 9C13 7.34315 14.3431 6 16 6C17.6569 6 19 7.34315 19 9V17.5086L19.411 17.8082C20.0357 18.2634 20.4106 18.71 20.6419 19.2006C20.8769 19.6993 21 20.3202 21 21.1799C21 23.8135 18.7903 26 16 26C13.2097 26 11 23.8135 11 21.1799C11 20.3202 11.1231 19.6993 11.3581 19.2006C11.5894 18.71 11.9643 18.2634 12.589 17.8082L13 17.5086V9Z" fill="#222425"/>
</svg>
